<?xml version="1.0" encoding="UTF-8"?>
<svg id="_图层_1" data-name="图层_1" xmlns="http://www.w3.org/2000/svg" viewBox="0 0 128.25 128.36">
  <defs>
    <style>
      .cls-1 {
        fill: #939597;
      }

      .cls-2 {
        fill: #82b949;
      }

      .cls-3 {
        fill: #f79b1c;
      }

      .cls-4 {
        fill: #ee4224;
      }

      .cls-5 {
        fill: #057cc0;
      }
    </style>
  </defs>
  <g id="_图层_2" data-name="图层_2">
    <g id="_图层_1-2" data-name="图层_1-2">
      <path class="cls-2" d="M14.12,64.02l19.9,20c.2.1.3.3.5.4,2.4,2.8,5.2,5.3,7.8,8-1.5,1.5-2.8,3-4.4,4.4-2.1,2-5.3,2-7.4,0-8.2-8.1-16.3-16.4-24.4-24.6l8-8.2Z"/>
      <path class="cls-5" d="M42.32,92.32c-2.6-2.6-5.3-5.2-7.8-8l28.1-28c.2-.1.3-.3.5-.4,2.4,2.8,5,5.4,7.6,8-5.7,5.8-11.5,11.5-17.2,17.3-3.7,3.8-7.4,7.4-11.2,11.1Z"/>
      <path class="cls-4" d="M14.12,64.02l-8,8.1c-1.5-1.5-3.1-2.9-4.5-4.5-1.9-2.1-1.9-5.2.1-7.3,8.1-8.2,16.4-16.4,24.7-24.6,1.7,1.6,3.4,3.2,5,4.9,1,1,2.3,1.8,2.9,3.2l-20.2,20.2Z"/>
      <path class="cls-5" d="M97.92,33.82c16.2-.5,30.9,14.3,30,30.2h-10.9c-.1-3.8-1.3-7.6-3.4-10.8-3.8-5.4-9.2-8-15.7-8.4v-11Z"/>
      <path class="cls-2" d="M97.92,33.82v11.1c-5.6.2-10.9,2.6-14.7,6.7-4,4.3-8.3,8.3-12.4,12.4-2.6-2.6-5.3-5.1-7.6-8,4-4.3,8.3-8.3,12.3-12.5,3.3-3.5,7.4-6.2,11.9-7.9,3.4-1.3,6.9-1.9,10.5-1.8Z"/>
      <path class="cls-4" d="M117.12,64.12h10.9c.3,7.9-2.7,15.5-8.4,21-5.6,6.1-13.7,9.5-22,9.1v-10.8c11.7-.5,18.9-9.2,19.3-18.4,0-.3.1-.6.2-.9Z"/>
      <path class="cls-3" d="M34.32,43.82c-.6-1.4-1.9-2.2-2.9-3.2-1.6-1.7-3.3-3.3-5-4.9,1.4-1.4,2.7-3,4.2-4.3,2.2-1.9,5.4-1.8,7.4.1,7.2,7.1,14.4,14.3,21.6,21.6.1.1.2.3.2.4l-7.8,7.6c-.5,0-.8-.6-1.2-1l-15-15.1c-.5-.4-.8-1-1.5-1.2Z"/>
      <path class="cls-3" d="M97.62,83.42v10.8c-8,.2-14.7-2.8-20.5-8-3.7-3.3-7.1-6.9-10.7-10.3-.2-.2-.3-.4-.4-.5l7.9-8c3.4,3.3,6.8,6.7,10.3,10,3.3,3.4,7.8,5.5,12.6,5.7.2.1.5.2.8.3Z"/>
      <path class="cls-1" d="M37.52,61.02h5.2c2,0,2.6.8,2.6,2.9,0,2.3-.6,3.1-2.5,3.1h-5.2v5.2c0,1.8-.6,2.4-2.5,2.4h-1.5c-1,.1-1.9-.6-2-1.6v-5.8c-1.7-.2-3.4-.2-5.2-.2-2-.1-2.6-.7-2.6-2.7,0-2.7.4-3.3,2.5-3.4h5.2v-5.4c0-1.7.5-2.2,2.3-2.2h1.5c1.5,0,2.2.8,2.2,2.2v5.5Z"/>
      <path class="cls-1" d="M96.92,67.12h-8.3c-1.9,0-2.4-.7-2.3-3.2,0-2,.6-2.7,2.4-2.7h16.6c1.9,0,2.4.6,2.4,2.8,0,2.4-.5,3.1-2.5,3.1-2.8,0-5.6,0-8.3,0Z"/>
    </g>
  </g>
</svg>